<?xml version="1.0" encoding="UTF-8" ?>
<svg version="1.1" width="32000" height="32000" xmlns="http://www.w3.org/2000/svg" shape-rendering="crispEdges">
<rect x="13000" y="0" width="6000" height="1000" fill="#011203" />
<rect x="10000" y="1000" width="3000" height="1000" fill="#011203" />
<rect x="13000" y="1000" width="6000" height="1000" fill="#7DC98F" />
<rect x="19000" y="1000" width="3000" height="1000" fill="#011203" />
<rect x="8000" y="2000" width="2000" height="1000" fill="#011203" />
<rect x="10000" y="2000" width="3000" height="1000" fill="#7DC98F" />
<rect x="13000" y="2000" width="3000" height="1000" fill="#2BBA4C" />
<rect x="16000" y="2000" width="2000" height="1000" fill="#1D8034" />
<rect x="18000" y="2000" width="1000" height="1000" fill="#2BBA4C" />
<rect x="19000" y="2000" width="3000" height="1000" fill="#7DC98F" />
<rect x="22000" y="2000" width="2000" height="1000" fill="#011203" />
<rect x="7000" y="3000" width="1000" height="1000" fill="#011203" />
<rect x="8000" y="3000" width="2000" height="1000" fill="#7DC98F" />
<rect x="10000" y="3000" width="2000" height="1000" fill="#1D8034" />
<rect x="12000" y="3000" width="1000" height="1000" fill="#2BBA4C" />
<rect x="13000" y="3000" width="6000" height="4000" fill="#2FCA54" />
<rect x="19000" y="3000" width="3000" height="1000" fill="#2BBA4C" />
<rect x="22000" y="3000" width="2000" height="1000" fill="#7DC98F" />
<rect x="24000" y="3000" width="1000" height="1000" fill="#011203" />
<rect x="5000" y="4000" width="2000" height="1000" fill="#011203" />
<rect x="7000" y="4000" width="1000" height="1000" fill="#7DC98F" />
<rect x="8000" y="4000" width="2000" height="1000" fill="#1D8034" />
<rect x="10000" y="4000" width="3000" height="2000" fill="#2FCA54" />
<rect x="19000" y="4000" width="3000" height="5000" fill="#2FCA54" />
<rect x="22000" y="4000" width="1000" height="1000" fill="#1D8034" />
<rect x="23000" y="4000" width="1000" height="1000" fill="#2FCA54" />
<rect x="24000" y="4000" width="1000" height="1000" fill="#7DC98F" />
<rect x="25000" y="4000" width="2000" height="1000" fill="#011203" />
<rect x="4000" y="5000" width="1000" height="2000" fill="#011203" />
<rect x="5000" y="5000" width="2000" height="1000" fill="#7DC98F" />
<rect x="7000" y="5000" width="2000" height="1000" fill="#2BBA4C" />
<rect x="9000" y="5000" width="1000" height="1000" fill="#C6FFBA" />
<rect x="22000" y="5000" width="1000" height="21000" fill="#2FCA54" />
<rect x="23000" y="5000" width="1000" height="1000" fill="#2BBA4C" />
<rect x="24000" y="5000" width="1000" height="19000" fill="#2FCA54" />
<rect x="25000" y="5000" width="2000" height="1000" fill="#7DC98F" />
<rect x="27000" y="5000" width="1000" height="2000" fill="#011203" />
<rect x="5000" y="6000" width="1000" height="1000" fill="#7DC98F" />
<rect x="6000" y="6000" width="1000" height="1000" fill="#1D8034" />
<rect x="7000" y="6000" width="1000" height="1000" fill="#2FCA54" />
<rect x="8000" y="6000" width="1000" height="1000" fill="#C6FFBA" />
<rect x="9000" y="6000" width="1000" height="1000" fill="#2FCA54" />
<rect x="10000" y="6000" width="1000" height="1000" fill="#C6FFBA" />
<rect x="11000" y="6000" width="2000" height="22000" fill="#2FCA54" />
<rect x="23000" y="6000" width="1000" height="19000" fill="#2FCA54" />
<rect x="25000" y="6000" width="1000" height="1000" fill="#1D8034" />
<rect x="26000" y="6000" width="1000" height="1000" fill="#7DC98F" />
<rect x="3000" y="7000" width="1000" height="1000" fill="#011203" />
<rect x="4000" y="7000" width="1000" height="1000" fill="#7DC98F" />
<rect x="5000" y="7000" width="1000" height="1000" fill="#1D8034" />
<rect x="6000" y="7000" width="1000" height="1000" fill="#2FCA54" />
<rect x="7000" y="7000" width="1000" height="2000" fill="#C6FFBA" />
<rect x="8000" y="7000" width="1000" height="1000" fill="#2FCA54" />
<rect x="9000" y="7000" width="1000" height="1000" fill="#C6FFBA" />
<rect x="10000" y="7000" width="1000" height="20000" fill="#2FCA54" />
<rect x="13000" y="7000" width="3000" height="2000" fill="#2FCA54" />
<rect x="16000" y="7000" width="1000" height="17000" fill="#000000" />
<rect x="17000" y="7000" width="2000" height="2000" fill="#2FCA54" />
<rect x="25000" y="7000" width="1000" height="15000" fill="#2FCA54" />
<rect x="26000" y="7000" width="1000" height="1000" fill="#2BBA4C" />
<rect x="27000" y="7000" width="1000" height="1000" fill="#7DC98F" />
<rect x="28000" y="7000" width="1000" height="1000" fill="#011203" />
<rect x="2000" y="8000" width="1000" height="2000" fill="#011203" />
<rect x="3000" y="8000" width="1000" height="2000" fill="#7DC98F" />
<rect x="4000" y="8000" width="1000" height="1000" fill="#1D8034" />
<rect x="5000" y="8000" width="1000" height="1000" fill="#2BBA4C" />
<rect x="6000" y="8000" width="1000" height="3000" fill="#C6FFBA" />
<rect x="8000" y="8000" width="1000" height="3000" fill="#C6FFBA" />
<rect x="9000" y="8000" width="1000" height="1000" fill="#2FCA54" />
<rect x="26000" y="8000" width="1000" height="13000" fill="#2FCA54" />
<rect x="27000" y="8000" width="1000" height="1000" fill="#1D8034" />
<rect x="28000" y="8000" width="1000" height="2000" fill="#7DC98F" />
<rect x="29000" y="8000" width="1000" height="2000" fill="#011203" />
<rect x="4000" y="9000" width="1000" height="1000" fill="#2BBA4C" />
<rect x="5000" y="9000" width="1000" height="1000" fill="#C6FFBA" />
<rect x="7000" y="9000" width="1000" height="1000" fill="#2FCA54" />
<rect x="9000" y="9000" width="1000" height="1000" fill="#C6FFBA" />
<rect x="13000" y="9000" width="3000" height="1000" fill="#000000" />
<rect x="17000" y="9000" width="3000" height="1000" fill="#000000" />
<rect x="20000" y="9000" width="2000" height="17000" fill="#2FCA54" />
<rect x="27000" y="9000" width="1000" height="10000" fill="#2FCA54" />
<rect x="1000" y="10000" width="1000" height="3000" fill="#011203" />
<rect x="2000" y="10000" width="1000" height="3000" fill="#7DC98F" />
<rect x="3000" y="10000" width="1000" height="1000" fill="#2BBA4C" />
<rect x="4000" y="10000" width="2000" height="10000" fill="#2FCA54" />
<rect x="7000" y="10000" width="1000" height="2000" fill="#C6FFBA" />
<rect x="9000" y="10000" width="1000" height="17000" fill="#2FCA54" />
<rect x="13000" y="10000" width="1000" height="6000" fill="#000000" />
<rect x="14000" y="10000" width="2000" height="5000" fill="#2FCA54" />
<rect x="17000" y="10000" width="2000" height="5000" fill="#2FCA54" />
<rect x="19000" y="10000" width="1000" height="3000" fill="#000000" />
<rect x="28000" y="10000" width="1000" height="2000" fill="#1D8034" />
<rect x="29000" y="10000" width="1000" height="3000" fill="#7DC98F" />
<rect x="30000" y="10000" width="1000" height="3000" fill="#011203" />
<rect x="3000" y="11000" width="1000" height="1000" fill="#1D8034" />
<rect x="6000" y="11000" width="1000" height="14000" fill="#2FCA54" />
<rect x="8000" y="11000" width="1000" height="16000" fill="#2FCA54" />
<rect x="3000" y="12000" width="1000" height="1000" fill="#2BBA4C" />
<rect x="7000" y="12000" width="1000" height="14000" fill="#2FCA54" />
<rect x="28000" y="12000" width="1000" height="1000" fill="#2BBA4C" />
<rect x="0" y="13000" width="1000" height="6000" fill="#011203" />
<rect x="1000" y="13000" width="1000" height="6000" fill="#7DC98F" />
<rect x="2000" y="13000" width="1000" height="2000" fill="#2BBA4C" />
<rect x="3000" y="13000" width="1000" height="6000" fill="#2FCA54" />
<rect x="19000" y="13000" width="1000" height="2000" fill="#2FCA54" />
<rect x="28000" y="13000" width="1000" height="5000" fill="#2FCA54" />
<rect x="29000" y="13000" width="1000" height="1000" fill="#1D8034" />
<rect x="30000" y="13000" width="1000" height="6000" fill="#7DC98F" />
<rect x="31000" y="13000" width="1000" height="6000" fill="#011203" />
<rect x="29000" y="14000" width="1000" height="1000" fill="#2BBA4C" />
<rect x="2000" y="15000" width="1000" height="2000" fill="#1D8034" />
<rect x="14000" y="15000" width="2000" height="1000" fill="#000000" />
<rect x="17000" y="15000" width="3000" height="1000" fill="#000000" />
<rect x="29000" y="15000" width="1000" height="2000" fill="#1D8034" />
<rect x="13000" y="16000" width="3000" height="2000" fill="#2FCA54" />
<rect x="17000" y="16000" width="2000" height="5000" fill="#2FCA54" />
<rect x="19000" y="16000" width="1000" height="6000" fill="#000000" />
<rect x="2000" y="17000" width="1000" height="2000" fill="#2BBA4C" />
<rect x="29000" y="17000" width="1000" height="2000" fill="#2BBA4C" />
<rect x="13000" y="18000" width="1000" height="4000" fill="#000000" />
<rect x="14000" y="18000" width="2000" height="3000" fill="#2FCA54" />
<rect x="28000" y="18000" width="1000" height="1000" fill="#1D5434" />
<rect x="1000" y="19000" width="1000" height="3000" fill="#011203" />
<rect x="2000" y="19000" width="1000" height="3000" fill="#7DC98F" />
<rect x="3000" y="19000" width="1000" height="3000" fill="#2BBA4C" />
<rect x="27000" y="19000" width="1000" height="3000" fill="#1D5434" />
<rect x="28000" y="19000" width="1000" height="1000" fill="#1D8034" />
<rect x="29000" y="19000" width="1000" height="3000" fill="#7DC98F" />
<rect x="30000" y="19000" width="1000" height="3000" fill="#011203" />
<rect x="4000" y="20000" width="1000" height="1000" fill="#1D8034" />
<rect x="5000" y="20000" width="1000" height="3000" fill="#2FCA54" />
<rect x="28000" y="20000" width="1000" height="2000" fill="#2BBA4C" />
<rect x="4000" y="21000" width="1000" height="3000" fill="#2BBA4C" />
<rect x="14000" y="21000" width="2000" height="1000" fill="#000000" />
<rect x="17000" y="21000" width="2000" height="1000" fill="#000000" />
<rect x="26000" y="21000" width="1000" height="2000" fill="#1D5434" />
<rect x="2000" y="22000" width="1000" height="2000" fill="#011203" />
<rect x="3000" y="22000" width="1000" height="2000" fill="#7DC98F" />
<rect x="13000" y="22000" width="3000" height="7000" fill="#2FCA54" />
<rect x="17000" y="22000" width="3000" height="5000" fill="#2FCA54" />
<rect x="25000" y="22000" width="1000" height="3000" fill="#1D5434" />
<rect x="27000" y="22000" width="1000" height="2000" fill="#1D8034" />
<rect x="28000" y="22000" width="1000" height="2000" fill="#7DC98F" />
<rect x="29000" y="22000" width="1000" height="2000" fill="#011203" />
<rect x="5000" y="23000" width="1000" height="1000" fill="#1D8034" />
<rect x="26000" y="23000" width="1000" height="2000" fill="#2BBA4C" />
<rect x="3000" y="24000" width="1000" height="1000" fill="#011203" />
<rect x="4000" y="24000" width="1000" height="1000" fill="#7DC98F" />
<rect x="5000" y="24000" width="1000" height="1000" fill="#2BBA4C" />
<rect x="16000" y="24000" width="1000" height="5000" fill="#2FCA54" />
<rect x="24000" y="24000" width="1000" height="2000" fill="#1D5434" />
<rect x="27000" y="24000" width="1000" height="1000" fill="#7DC98F" />
<rect x="28000" y="24000" width="1000" height="1000" fill="#011203" />
<rect x="4000" y="25000" width="1000" height="2000" fill="#011203" />
<rect x="5000" y="25000" width="1000" height="2000" fill="#7DC98F" />
<rect x="6000" y="25000" width="1000" height="1000" fill="#1D8034" />
<rect x="23000" y="25000" width="1000" height="2000" fill="#1D5434" />
<rect x="25000" y="25000" width="1000" height="1000" fill="#2BBA4C" />
<rect x="26000" y="25000" width="1000" height="2000" fill="#7DC98F" />
<rect x="27000" y="25000" width="1000" height="2000" fill="#011203" />
<rect x="6000" y="26000" width="1000" height="1000" fill="#7DC98F" />
<rect x="7000" y="26000" width="1000" height="1000" fill="#2BBA4C" />
<rect x="20000" y="26000" width="1000" height="1000" fill="#2FCA54" />
<rect x="21000" y="26000" width="2000" height="2000" fill="#1D5434" />
<rect x="24000" y="26000" width="1000" height="1000" fill="#2BBA4C" />
<rect x="25000" y="26000" width="1000" height="1000" fill="#7DC98F" />
<rect x="5000" y="27000" width="2000" height="1000" fill="#011203" />
<rect x="7000" y="27000" width="1000" height="1000" fill="#7DC98F" />
<rect x="8000" y="27000" width="2000" height="1000" fill="#2BBA4C" />
<rect x="10000" y="27000" width="1000" height="1000" fill="#1D8034" />
<rect x="17000" y="27000" width="2000" height="1000" fill="#2FCA54" />
<rect x="19000" y="27000" width="2000" height="1000" fill="#1D5434" />
<rect x="23000" y="27000" width="1000" height="1000" fill="#1D8034" />
<rect x="24000" y="27000" width="1000" height="1000" fill="#7DC98F" />
<rect x="25000" y="27000" width="2000" height="1000" fill="#011203" />
<rect x="7000" y="28000" width="1000" height="1000" fill="#011203" />
<rect x="8000" y="28000" width="2000" height="1000" fill="#7DC98F" />
<rect x="10000" y="28000" width="1000" height="1000" fill="#2BBA4C" />
<rect x="11000" y="28000" width="2000" height="1000" fill="#1D8034" />
<rect x="17000" y="28000" width="1000" height="1000" fill="#2FCA54" />
<rect x="18000" y="28000" width="2000" height="1000" fill="#1D5434" />
<rect x="20000" y="28000" width="2000" height="1000" fill="#1D8034" />
<rect x="22000" y="28000" width="2000" height="1000" fill="#7DC98F" />
<rect x="24000" y="28000" width="1000" height="1000" fill="#011203" />
<rect x="8000" y="29000" width="2000" height="1000" fill="#011203" />
<rect x="10000" y="29000" width="3000" height="1000" fill="#7DC98F" />
<rect x="13000" y="29000" width="1000" height="1000" fill="#2BBA4C" />
<rect x="14000" y="29000" width="3000" height="1000" fill="#1D8034" />
<rect x="17000" y="29000" width="2000" height="1000" fill="#2BBA4C" />
<rect x="19000" y="29000" width="3000" height="1000" fill="#7DC98F" />
<rect x="22000" y="29000" width="2000" height="1000" fill="#011203" />
<rect x="10000" y="30000" width="3000" height="1000" fill="#011203" />
<rect x="13000" y="30000" width="6000" height="1000" fill="#7DC98F" />
<rect x="19000" y="30000" width="3000" height="1000" fill="#011203" />
<rect x="13000" y="31000" width="6000" height="1000" fill="#011203" />
</svg>