<?xml version="1.0" encoding="UTF-8" ?>
<svg version="1.1" width="3200" height="3200" xmlns="http://www.w3.org/2000/svg" shape-rendering="crispEdges">
<rect x="1400" y="100" width="400" height="100" fill="#011203" />
<rect x="1300" y="200" width="200" height="100" fill="#011203" />
<rect x="1500" y="200" width="100" height="100" fill="#E8F5FF" />
<rect x="1600" y="200" width="100" height="100" fill="#4895C3" />
<rect x="1700" y="200" width="200" height="100" fill="#011203" />
<rect x="900" y="300" width="300" height="100" fill="#011203" />
<rect x="1200" y="300" width="100" height="100" fill="#FAFBFF" />
<rect x="1300" y="300" width="100" height="100" fill="#F6F8FF" />
<rect x="1400" y="300" width="100" height="100" fill="#B3D2E7" />
<rect x="1500" y="300" width="200" height="200" fill="#011203" />
<rect x="1700" y="300" width="100" height="100" fill="#0D345B" />
<rect x="1800" y="300" width="100" height="100" fill="#5297BE" />
<rect x="1900" y="300" width="100" height="100" fill="#5996B5" />
<rect x="2000" y="300" width="300" height="100" fill="#011203" />
<rect x="400" y="400" width="600" height="100" fill="#011203" />
<rect x="1000" y="400" width="200" height="100" fill="#EFF3FF" />
<rect x="1200" y="400" width="100" height="100" fill="#5796B5" />
<rect x="1300" y="400" width="100" height="100" fill="#4099C5" />
<rect x="1400" y="400" width="100" height="200" fill="#011203" />
<rect x="1700" y="400" width="100" height="200" fill="#011203" />
<rect x="1800" y="400" width="100" height="100" fill="#163458" />
<rect x="1900" y="400" width="100" height="100" fill="#0F365D" />
<rect x="2000" y="400" width="100" height="100" fill="#4397C5" />
<rect x="2100" y="400" width="100" height="100" fill="#4496C5" />
<rect x="2200" y="400" width="600" height="100" fill="#011203" />
<rect x="400" y="500" width="100" height="100" fill="#011203" />
<rect x="500" y="500" width="100" height="100" fill="#EFF3FC" />
<rect x="600" y="500" width="200" height="100" fill="#EDF3FF" />
<rect x="800" y="500" width="100" height="100" fill="#EDF4FE" />
<rect x="900" y="500" width="100" height="100" fill="#F0F2FE" />
<rect x="1000" y="500" width="100" height="100" fill="#ACD4ED" />
<rect x="1100" y="500" width="100" height="100" fill="#A4D6F1" />
<rect x="1200" y="500" width="200" height="100" fill="#011203" />
<rect x="1500" y="500" width="100" height="100" fill="#27AB46" />
<rect x="1600" y="500" width="100" height="100" fill="#239952" />
<rect x="1800" y="500" width="200" height="100" fill="#011203" />
<rect x="2000" y="500" width="100" height="100" fill="#16345A" />
<rect x="2100" y="500" width="100" height="100" fill="#244D79" />
<rect x="2200" y="500" width="100" height="100" fill="#4197C6" />
<rect x="2300" y="500" width="200" height="100" fill="#4198C5" />
<rect x="2500" y="500" width="100" height="100" fill="#4098C6" />
<rect x="2600" y="500" width="100" height="100" fill="#25507D" />
<rect x="2700" y="500" width="100" height="100" fill="#011203" />
<rect x="400" y="600" width="100" height="200" fill="#5499C0" />
<rect x="500" y="600" width="100" height="100" fill="#B0D1F0" />
<rect x="600" y="600" width="100" height="100" fill="#ABD4F0" />
<rect x="700" y="600" width="100" height="100" fill="#ABD5ED" />
<rect x="800" y="600" width="100" height="100" fill="#4197C6" />
<rect x="900" y="600" width="100" height="100" fill="#4496C6" />
<rect x="1000" y="600" width="300" height="100" fill="#011203" />
<rect x="1300" y="600" width="200" height="100" fill="#27AB46" />
<rect x="1500" y="600" width="100" height="1300" fill="#33DE5B" />
<rect x="1600" y="600" width="100" height="100" fill="#28B05F" />
<rect x="1700" y="600" width="200" height="100" fill="#239952" />
<rect x="1900" y="600" width="300" height="100" fill="#011203" />
<rect x="2200" y="600" width="100" height="100" fill="#264C7D" />
<rect x="2300" y="600" width="200" height="100" fill="#274B7B" />
<rect x="2500" y="600" width="100" height="100" fill="#234E7B" />
<rect x="2600" y="600" width="100" height="100" fill="#264D78" />
<rect x="2700" y="600" width="100" height="200" fill="#1A324A" />
<rect x="500" y="700" width="100" height="100" fill="#EFF4FA" />
<rect x="600" y="700" width="200" height="100" fill="#244D79" />
<rect x="800" y="700" width="300" height="100" fill="#011203" />
<rect x="1100" y="700" width="200" height="100" fill="#27AB46" />
<rect x="1300" y="700" width="200" height="100" fill="#C4FFD2" />
<rect x="1600" y="700" width="200" height="1100" fill="#2DC46A" />
<rect x="1800" y="700" width="300" height="100" fill="#239952" />
<rect x="2100" y="700" width="300" height="100" fill="#011203" />
<rect x="2400" y="700" width="100" height="100" fill="#17335B" />
<rect x="2500" y="700" width="100" height="100" fill="#19325B" />
<rect x="2600" y="700" width="100" height="500" fill="#4499C2" />
<rect x="400" y="800" width="100" height="100" fill="#5399BD" />
<rect x="500" y="800" width="100" height="100" fill="#ECF5FA" />
<rect x="600" y="800" width="300" height="100" fill="#011203" />
<rect x="900" y="800" width="200" height="100" fill="#27AB46" />
<rect x="1100" y="800" width="200" height="200" fill="#C4FFD2" />
<rect x="1300" y="800" width="200" height="1000" fill="#33DE5B" />
<rect x="1800" y="800" width="100" height="900" fill="#2DC46A" />
<rect x="1900" y="800" width="100" height="100" fill="#23996B" />
<rect x="2000" y="800" width="300" height="100" fill="#239952" />
<rect x="2300" y="800" width="300" height="100" fill="#011203" />
<rect x="2700" y="800" width="100" height="200" fill="#1A3349" />
<rect x="400" y="900" width="100" height="100" fill="#5196BD" />
<rect x="500" y="900" width="100" height="400" fill="#EFF4FA" />
<rect x="600" y="900" width="100" height="200" fill="#011203" />
<rect x="700" y="900" width="200" height="100" fill="#2FCA54" />
<rect x="900" y="900" width="100" height="100" fill="#33DE5B" />
<rect x="1000" y="900" width="100" height="200" fill="#C4FFD2" />
<rect x="1900" y="900" width="100" height="800" fill="#2DC46A" />
<rect x="2000" y="900" width="200" height="100" fill="#28B05F" />
<rect x="2200" y="900" width="300" height="100" fill="#239952" />
<rect x="2500" y="900" width="100" height="200" fill="#011203" />
<rect x="400" y="1000" width="100" height="200" fill="#549ABE" />
<rect x="700" y="1000" width="100" height="100" fill="#2FCA54" />
<rect x="800" y="1000" width="100" height="100" fill="#33DE5B" />
<rect x="900" y="1000" width="100" height="200" fill="#C4FFD2" />
<rect x="1100" y="1000" width="100" height="200" fill="#C4FFD2" />
<rect x="1200" y="1000" width="100" height="700" fill="#33DE5B" />
<rect x="2000" y="1000" width="100" height="500" fill="#2DC46A" />
<rect x="2100" y="1000" width="200" height="100" fill="#28B05F" />
<rect x="2300" y="1000" width="200" height="100" fill="#239952" />
<rect x="2700" y="1000" width="100" height="200" fill="#1A324A" />
<rect x="600" y="1100" width="100" height="100" fill="#27476D" />
<rect x="700" y="1100" width="100" height="600" fill="#011203" />
<rect x="800" y="1100" width="100" height="300" fill="#2FCA54" />
<rect x="1000" y="1100" width="100" height="100" fill="#33DE5B" />
<rect x="2100" y="1100" width="100" height="300" fill="#2DC46A" />
<rect x="2200" y="1100" width="100" height="400" fill="#28B05F" />
<rect x="2300" y="1100" width="100" height="500" fill="#239952" />
<rect x="2400" y="1100" width="100" height="600" fill="#011203" />
<rect x="2500" y="1100" width="100" height="100" fill="#1C364F" />
<rect x="400" y="1200" width="100" height="100" fill="#5499C0" />
<rect x="600" y="1200" width="100" height="100" fill="#234C78" />
<rect x="900" y="1200" width="100" height="300" fill="#2FCA54" />
<rect x="1000" y="1200" width="100" height="100" fill="#A8FFBD" />
<rect x="1100" y="1200" width="100" height="300" fill="#33DE5B" />
<rect x="2500" y="1200" width="100" height="200" fill="#163458" />
<rect x="2600" y="1200" width="100" height="100" fill="#4497C1" />
<rect x="2700" y="1200" width="100" height="100" fill="#1B344A" />
<rect x="400" y="1300" width="100" height="400" fill="#011203" />
<rect x="500" y="1300" width="100" height="100" fill="#4897C0" />
<rect x="600" y="1300" width="100" height="100" fill="#244D79" />
<rect x="1000" y="1300" width="100" height="100" fill="#33DE5B" />
<rect x="2600" y="1300" width="100" height="100" fill="#25507B" />
<rect x="2700" y="1300" width="100" height="400" fill="#011203" />
<rect x="500" y="1400" width="100" height="100" fill="#264C7D" />
<rect x="600" y="1400" width="100" height="100" fill="#AED3ED" />
<rect x="800" y="1400" width="100" height="200" fill="#27AB46" />
<rect x="1000" y="1400" width="100" height="400" fill="#2FCA54" />
<rect x="2100" y="1400" width="100" height="300" fill="#28B05F" />
<rect x="2500" y="1400" width="100" height="100" fill="#19325A" />
<rect x="2600" y="1400" width="100" height="100" fill="#13335A" />
<rect x="500" y="1500" width="100" height="100" fill="#264B7F" />
<rect x="600" y="1500" width="100" height="200" fill="#AFD3ED" />
<rect x="900" y="1500" width="100" height="400" fill="#27AB46" />
<rect x="1100" y="1500" width="100" height="400" fill="#2FCA54" />
<rect x="2000" y="1500" width="100" height="400" fill="#28B05F" />
<rect x="2200" y="1500" width="100" height="300" fill="#239952" />
<rect x="2500" y="1500" width="100" height="100" fill="#244C7F" />
<rect x="2600" y="1500" width="100" height="100" fill="#0F355A" />
<rect x="500" y="1600" width="100" height="300" fill="#011203" />
<rect x="800" y="1600" width="100" height="300" fill="#011203" />
<rect x="2300" y="1600" width="100" height="300" fill="#011203" />
<rect x="2500" y="1600" width="100" height="100" fill="#16345A" />
<rect x="2600" y="1600" width="100" height="300" fill="#011203" />
<rect x="600" y="1700" width="100" height="100" fill="#244D79" />
<rect x="700" y="1700" width="100" height="100" fill="#AFD3ED" />
<rect x="1200" y="1700" width="100" height="400" fill="#2FCA54" />
<rect x="1800" y="1700" width="200" height="300" fill="#28B05F" />
<rect x="2100" y="1700" width="100" height="100" fill="#23996B" />
<rect x="2400" y="1700" width="100" height="100" fill="#4397C5" />
<rect x="2500" y="1700" width="100" height="100" fill="#14345B" />
<rect x="600" y="1800" width="100" height="300" fill="#011203" />
<rect x="700" y="1800" width="100" height="100" fill="#B0D9F7" />
<rect x="1000" y="1800" width="100" height="100" fill="#23963E" />
<rect x="1300" y="1800" width="100" height="400" fill="#2FCA54" />
<rect x="1400" y="1800" width="100" height="100" fill="#33DE5B" />
<rect x="1600" y="1800" width="100" height="100" fill="#2DC46A" />
<rect x="1700" y="1800" width="100" height="500" fill="#28B05F" />
<rect x="2100" y="1800" width="100" height="200" fill="#239952" />
<rect x="2200" y="1800" width="100" height="100" fill="#239977" />
<rect x="2400" y="1800" width="100" height="100" fill="#4C96C3" />
<rect x="2500" y="1800" width="100" height="300" fill="#011203" />
<rect x="700" y="1900" width="100" height="100" fill="#234D7F" />
<rect x="800" y="1900" width="100" height="100" fill="#AED3ED" />
<rect x="900" y="1900" width="100" height="100" fill="#011203" />
<rect x="1000" y="1900" width="100" height="100" fill="#27AB46" />
<rect x="1100" y="1900" width="100" height="100" fill="#23963E" />
<rect x="1400" y="1900" width="200" height="400" fill="#2FCA54" />
<rect x="1600" y="1900" width="100" height="500" fill="#28B05F" />
<rect x="2000" y="1900" width="100" height="200" fill="#239952" />
<rect x="2200" y="1900" width="100" height="100" fill="#011203" />
<rect x="2300" y="1900" width="100" height="100" fill="#4099C3" />
<rect x="2400" y="1900" width="100" height="100" fill="#244D7B" />
<rect x="700" y="2000" width="100" height="200" fill="#011203" />
<rect x="800" y="2000" width="100" height="100" fill="#AFD3ED" />
<rect x="900" y="2000" width="100" height="100" fill="#ADD3EA" />
<rect x="1000" y="2000" width="100" height="200" fill="#011203" />
<rect x="1100" y="2000" width="100" height="100" fill="#27AB46" />
<rect x="1800" y="2000" width="100" height="100" fill="#28B05F" />
<rect x="1900" y="2000" width="100" height="100" fill="#23996B" />
<rect x="2100" y="2000" width="100" height="200" fill="#011203" />
<rect x="2200" y="2000" width="100" height="100" fill="#3D99C8" />
<rect x="2300" y="2000" width="100" height="100" fill="#264C7B" />
<rect x="2400" y="2000" width="100" height="200" fill="#011203" />
<rect x="800" y="2100" width="100" height="300" fill="#011203" />
<rect x="900" y="2100" width="100" height="100" fill="#ADD2EC" />
<rect x="1100" y="2100" width="100" height="200" fill="#011203" />
<rect x="1200" y="2100" width="100" height="100" fill="#27AB46" />
<rect x="1800" y="2100" width="100" height="100" fill="#23996B" />
<rect x="1900" y="2100" width="100" height="100" fill="#239952" />
<rect x="2000" y="2100" width="100" height="200" fill="#011203" />
<rect x="2200" y="2100" width="100" height="100" fill="#234D7F" />
<rect x="2300" y="2100" width="100" height="300" fill="#011203" />
<rect x="900" y="2200" width="100" height="100" fill="#224D7A" />
<rect x="1000" y="2200" width="100" height="100" fill="#ABD6E9" />
<rect x="1200" y="2200" width="100" height="100" fill="#3EA870" />
<rect x="1300" y="2200" width="100" height="200" fill="#27AB46" />
<rect x="1800" y="2200" width="100" height="200" fill="#239952" />
<rect x="1900" y="2200" width="100" height="100" fill="#23996B" />
<rect x="2100" y="2200" width="100" height="100" fill="#4099C1" />
<rect x="2200" y="2200" width="100" height="100" fill="#13345D" />
<rect x="900" y="2300" width="100" height="200" fill="#011203" />
<rect x="1000" y="2300" width="100" height="100" fill="#1E4976" />
<rect x="1100" y="2300" width="100" height="100" fill="#4294B9" />
<rect x="1200" y="2300" width="100" height="200" fill="#011203" />
<rect x="1400" y="2300" width="100" height="200" fill="#27AB46" />
<rect x="1500" y="2300" width="100" height="100" fill="#2FCA54" />
<rect x="1700" y="2300" width="100" height="200" fill="#239952" />
<rect x="1900" y="2300" width="100" height="200" fill="#011203" />
<rect x="2000" y="2300" width="100" height="100" fill="#4795C5" />
<rect x="2100" y="2300" width="100" height="100" fill="#16345A" />
<rect x="2200" y="2300" width="100" height="200" fill="#011203" />
<rect x="1000" y="2400" width="100" height="200" fill="#011203" />
<rect x="1100" y="2400" width="100" height="100" fill="#244C80" />
<rect x="1300" y="2400" width="100" height="200" fill="#011203" />
<rect x="1500" y="2400" width="100" height="200" fill="#27AB46" />
<rect x="1600" y="2400" width="100" height="200" fill="#239952" />
<rect x="1800" y="2400" width="100" height="200" fill="#011203" />
<rect x="2000" y="2400" width="100" height="100" fill="#0D375D" />
<rect x="2100" y="2400" width="100" height="200" fill="#011203" />
<rect x="1100" y="2500" width="100" height="200" fill="#011203" />
<rect x="1200" y="2500" width="100" height="100" fill="#4994BC" />
<rect x="1400" y="2500" width="100" height="100" fill="#011203" />
<rect x="1700" y="2500" width="100" height="100" fill="#011203" />
<rect x="1900" y="2500" width="100" height="100" fill="#4795BC" />
<rect x="2000" y="2500" width="100" height="200" fill="#011203" />
<rect x="1200" y="2600" width="100" height="100" fill="#405163" />
<rect x="1300" y="2600" width="100" height="100" fill="#4C93C1" />
<rect x="1400" y="2600" width="100" height="100" fill="#5498C7" />
<rect x="1500" y="2600" width="200" height="100" fill="#011203" />
<rect x="1700" y="2600" width="100" height="100" fill="#5693C2" />
<rect x="1800" y="2600" width="100" height="100" fill="#5594BF" />
<rect x="1900" y="2600" width="100" height="100" fill="#273747" />
<rect x="1200" y="2700" width="200" height="100" fill="#011203" />
<rect x="1400" y="2700" width="100" height="100" fill="#254E7C" />
<rect x="1500" y="2700" width="100" height="100" fill="#3E99C6" />
<rect x="1600" y="2700" width="100" height="100" fill="#244D7B" />
<rect x="1700" y="2700" width="100" height="100" fill="#16335B" />
<rect x="1800" y="2700" width="200" height="100" fill="#011203" />
<rect x="1300" y="2800" width="200" height="100" fill="#011203" />
<rect x="1500" y="2800" width="100" height="100" fill="#214D7A" />
<rect x="1600" y="2800" width="100" height="100" fill="#224E7F" />
<rect x="1700" y="2800" width="200" height="100" fill="#011203" />
<rect x="1400" y="2900" width="400" height="100" fill="#011203" />
<rect x="1500" y="3000" width="200" height="100" fill="#011203" />
</svg>